<?xml version="1.0" encoding="utf-8"?>
<!-- Generator: Adobe Illustrator 27.5.0, SVG Export Plug-In . SVG Version: 6.00 Build 0)  -->
<svg version="1.1" xmlns="http://www.w3.org/2000/svg" xmlns:xlink="http://www.w3.org/1999/xlink" x="0px" y="0px"
	 viewBox="0 0 800 500" style="enable-background:new 0 0 800 500;" xml:space="preserve">
<g id="_x31_06">
	<g>
		<rect style="fill:#FFFFFF;" width="800" height="500"/>
		<g>
			<path style="fill:#2954C8;" d="M0,115.492l26.7-11.199c26.6-11.1,80-33.5,133.3-7.1c53.3,26.299,106.7,101.299,160,113.1
				c39.038,8.716,76.189-14.278,106.107-36.667c32.879-24.605,63.876-50.993,99.365-71.989
				c38.015-22.49,79.918-39.756,124.213-43.963c41.633-3.955,83.102,2.681,123.614,11.819l26.7,6v362c-167.715,0-335.43,0-503.145,0
				c-83.858,0-167.715,0-251.572,0c-4.037,0-45.283,0.193-45.283-0.233c0-2.034,0-4.068,0-6.102c0-10.48,0-20.962,0-31.443
				C0,304.974,0,210.232,0,115.492z"/>
			<path style="fill:#77A2EB;" d="M0,183.492l26.7,20.201c37.471,28.315,80.625,58.614,129.303,60.424
				c55.838,2.077,104.035-38.573,159.999-35.152c52.956,3.237,96.808,44.505,142.673,66.759
				c58.841,28.55,119.059,13.17,181.324,12.468c53.3-0.7,106.7,12.3,133.3,18.8l26.7,6.5v104c-266.666,0-533.333,0-800,0V183.492z"
				/>
			<path style="fill:#BCD4F7;" d="M0,304.492l26.7,2c26.6,2,80,6,133.3,2.2c55.826-4.084,110.563-16.47,164.846-29.565
				c55.361-13.358,111.463-27.895,168.861-26.608c100.469,2.253,193.158,48.356,279.593,95.474l26.7,14.5v72
				c-266.666,0-533.333,0-800,0V304.492z"/>
			<path style="fill:#FFFFFF;" d="M0,397.598l26.7-6.188c56.719-13.345,113.962-24.984,172.078-30.11
				c67.108-5.922,134.073-3.103,201.222,0.26c67.111,3.361,134.219-1.49,201.222,1.844c59.739,2.972,116.397,20.33,172.078,41.087
				l26.7,9.984v26.019c-266.666,0-533.333,0-800,0V397.598z"/>
		</g>
	</g>
</g>
<g id="Layer_1">
</g>
</svg>
